<?xml version="1.0" encoding="UTF-8"?>
<svg width="96px" height="96px" viewBox="0 0 96 96" version="1.1" xmlns="http://www.w3.org/2000/svg" xmlns:xlink="http://www.w3.org/1999/xlink">
    <!-- Generator: Sketch 61.2 (89653) - https://sketch.com -->
    <title>Artboard Copy 3</title>
    <desc>Created with Sketch.</desc>
    <g id="Artboard-Copy-3" stroke="none" stroke-width="1" fill="none" fill-rule="evenodd">
        <g id="Group" transform="translate(13.000000, 7.000000)" fill="#6A4AEA">
            <polygon id="Fill-2" fill-opacity="0.4" points="34.8417417 -5.23508691e-14 4.24727955 17.6369526 8.71043543 20.1563999 32.6100611 6.40686448 32.6100611 33.978031 34.8417417 35.2739052 37.0734224 33.978031 37.0734224 6.40686448 60.973048 20.1563999 65.364519 17.6369526"></polygon>
            <polygon id="Fill-3" points="34.8417417 37.64912 2.23147524 18.7887997 4.92714062e-14 20.0844685 4.92714062e-14 55.3581683 4.46315588 52.7666253 4.46315588 25.1954588 34.8417417 42.7601103 65.220533 25.1954588 65.220533 52.7666253 69.6834835 55.3581683 69.6834835 20.0844685 67.4520082 18.7887997"></polygon>
            <polygon id="Fill-4" fill-opacity="0.4" points="36.8574639 43.9841147 62.989181 59.0297297 37.0733402 74.0026328 37.0733402 46.4320825 34.8416596 45.1360029 32.6101843 46.4320825 32.6101843 74.0026328 6.69475436 59.0297297 32.7543758 43.9841147 28.3631102 41.3925717 0.000123240533 57.7338555 0.000123240533 60.3249877 34.8416596 80.4099081 69.6836067 60.3249877 69.6836067 57.7338555 41.3208252 41.3925717"></polygon>
        </g>
    </g>
</svg>