<?xml version="1.0" encoding="UTF-8"?>
<svg width="96px" height="96px" viewBox="0 0 96 96" version="1.1" xmlns="http://www.w3.org/2000/svg" xmlns:xlink="http://www.w3.org/1999/xlink">
    <!-- Generator: Sketch 61.2 (89653) - https://sketch.com -->
    <title>Artboard</title>
    <desc>Created with Sketch.</desc>
    <g id="Artboard" stroke="none" stroke-width="1" fill="none" fill-rule="evenodd">
        <rect id="Rectangle" fill="#6A4AEA" x="0" y="0" width="96" height="96" rx="48"></rect>
        <g id="Group" transform="translate(17.000000, 12.000000)" fill="#FFFFFF">
            <polygon id="Fill-2" fill-opacity="0.25" points="30.8598284 -4.63679126e-14 3.76187617 15.6213009 7.7149571 17.8528113 28.883197 5.6746514 28.883197 30.0948275 30.8598284 31.2426017 32.8364598 30.0948275 32.8364598 5.6746514 54.0046997 17.8528113 57.8942883 15.6213009"></polygon>
            <polygon id="Fill-3" points="30.8598284 33.3463634 1.9764495 16.6415083 4.36403884e-14 17.7891007 4.36403884e-14 49.0315205 3.95308092 46.7361538 3.95308092 22.3159778 30.8598284 37.8732405 57.7667578 22.3159778 57.7667578 46.7361538 61.7196568 49.0315205 61.7196568 17.7891007 59.7432073 16.6415083"></polygon>
            <polygon id="Fill-4" fill-opacity="0.25" points="32.6451823 38.9573587 55.7904174 52.2834749 32.836387 65.545189 32.836387 41.1255588 30.8597556 39.9776025 28.8833061 41.1255588 28.8833061 65.545189 5.92963958 52.2834749 29.0110185 38.9573587 25.1216119 36.6619921 0.0001091559 51.1357006 0.0001091559 53.4307034 30.8597556 71.2202043 61.7197659 53.4307034 61.7197659 51.1357006 36.5984451 36.6619921"></polygon>
        </g>
    </g>
</svg>