<?xml version="1.0" encoding="utf-8"?>
<!-- Generator: Adobe Illustrator 22.0.1, SVG Export Plug-In . SVG Version: 6.00 Build 0)  -->
<svg version="1.1" id="图层_1" xmlns="http://www.w3.org/2000/svg" xmlns:xlink="http://www.w3.org/1999/xlink" x="0px" y="0px"
	 viewBox="0 0 478.6 478.6" style="enable-background:new 0 0 478.6 478.6;" xml:space="preserve">
<style type="text/css">
	.st0{fill:#BFBFBF;}
</style>
<title>资源 3</title>
<g>
	<path id="Behance" class="st0" d="M394.6,146.2h-96.6v-24h96.6L394.6,146.2C394.6,146.2,394.6,146.2,394.6,146.2z M233.8,244.6
		c6.2,9.7,9.3,21.4,9.3,35.1c0,14.2-3.5,27-10.7,38.3c-4.5,7.5-10.2,13.8-17,18.8c-7.6,5.9-16.7,9.9-27.1,12
		c-10.4,2.2-21.7,3.2-33.9,3.2h-108V112.3h115.8c29.2,0.5,49.9,8.9,62.1,25.5c7.3,10.2,11,22.4,11,36.6c0,14.7-3.7,26.4-11.1,35.3
		c-4.1,5-10.2,9.5-18.3,13.6C218.4,227.9,227.6,234.9,233.8,244.6z M101.9,206.8h50.7c10.4,0,18.9-2,25.3-5.9c6.5-4,9.7-11,9.7-21.1
		c0-11.2-4.3-18.6-12.9-22.1c-7.4-2.5-16.8-3.8-28.3-3.8h-44.6V206.8z M192.6,276.3c0-12.5-5.1-21.1-15.3-25.7
		c-5.7-2.6-13.7-4-24-4.1h-51.5v63.9h50.7c10.4,0,18.5-1.4,24.3-4.2C187.4,301,192.6,291.1,192.6,276.3z M430.5,237.3
		c1.2,7.8,1.7,19.2,1.5,34.1H306.9c0.7,17.3,6.6,29.3,18,36.2c6.8,4.3,15.1,6.4,24.8,6.4c10.2,0,18.5-2.6,24.9-7.9
		c3.5-2.8,6.6-6.8,9.2-11.8h45.8c-1.2,10.2-6.7,20.5-16.6,31c-15.4,16.7-36.9,25.1-64.6,25.1c-22.9,0-43-7.1-60.5-21.1
		c-17.4-14.1-26.2-37-26.2-68.8c0-29.8,7.9-52.6,23.6-68.5c15.8-15.9,36.3-23.8,61.4-23.8c14.9,0,28.4,2.7,40.4,8
		c12,5.4,21.9,13.8,29.6,25.4C423.8,212,428.3,223.8,430.5,237.3z M385.3,241.8c-0.8-11.9-4.8-21-12-27.1c-7.1-6.2-16-9.3-26.6-9.3
		c-11.5,0-20.5,3.3-26.8,9.9c-6.4,6.5-10.3,15.4-12,26.6L385.3,241.8L385.3,241.8z"/>
</g>
</svg>
