<svg xmlns="http://www.w3.org/2000/svg" viewBox="0 0 478.61 478.61"><title>资源 3</title><g id="图层_2" data-name="图层 2"><g id="图层_1-2" data-name="图层 1"><rect x="46.62" y="47.83" width="385.37" height="385.37" fill="none"/><rect width="478.61" height="478.61" fill="none"/><path d="M239.31,52.59c-106.4,0-192.69,86.27-192.69,192.69A192.73,192.73,0,0,0,178.39,428.11c9.63,1.78,13.17-4.18,13.17-9.27,0-4.59-.18-19.77-.26-35.87-53.61,11.66-64.92-22.73-64.92-22.73C117.61,338,105,332,105,332c-17.48-12,1.32-11.71,1.32-11.71,19.35,1.36,29.54,19.86,29.54,19.86,17.19,29.46,45.08,20.94,56.07,16,1.73-12.46,6.72-21,12.23-25.77-42.8-4.87-87.79-21.4-87.79-95.23,0-21,7.53-38.23,19.85-51.72-2-4.85-8.6-24.45,1.87-51,0,0,16.18-5.18,53,19.75a182.79,182.79,0,0,1,96.5,0c36.78-24.93,52.94-19.75,52.94-19.75,10.49,26.54,3.89,46.14,1.89,51,12.35,13.49,19.83,30.68,19.83,51.72,0,74-45.08,90.3-88,95.07,6.91,6,13.07,17.71,13.07,35.68,0,25.78-.22,46.53-.22,52.88,0,5.13,3.47,11.14,13.24,9.24A192.71,192.71,0,0,0,432,245.27c0-106.42-86.27-192.69-192.68-192.69" fill="#bfbfbf"/><path d="M118.79,327.07c-.42,1-1.93,1.24-3.3.59s-2.18-1.93-1.73-2.9,1.92-1.26,3.32-.6,2.2,1.94,1.71,2.91m9.48,8.46c-.92.85-2.72.46-3.94-.89s-1.5-3.14-.56-4,2.69-.45,4,.89,1.51,3.14.54,4m6.5,10.82c-1.18.82-3.11.05-4.31-1.66s-1.18-3.77,0-4.59,3.1-.08,4.31,1.62,1.18,3.8,0,4.64m11,12.53c-1.06,1.16-3.31.85-5-.74s-2.15-3.76-1.09-4.92,3.33-.84,5,.74,2.18,3.77,1.06,4.92M160,363.11c-.46,1.51-2.63,2.19-4.81,1.55s-3.61-2.43-3.17-4,2.63-2.23,4.83-1.55,3.61,2.41,3.15,3.95m16.17,1.79c.05,1.59-1.8,2.91-4.09,2.94s-4.17-1.24-4.19-2.8,1.81-2.91,4.11-2.95,4.17,1.23,4.17,2.81M192,364.3c.28,1.55-1.32,3.14-3.59,3.57s-4.31-.55-4.59-2.09,1.34-3.18,3.58-3.59,4.32.54,4.61,2.11" fill="#bfbfbf"/></g></g></svg>