<svg xmlns="http://www.w3.org/2000/svg" viewBox="0 0 814 157"><title>资源 1</title><g id="图层_2" data-name="图层 2"><g id="图层_1-2" data-name="图层 1"><rect x="137.77" y="24.1" width="88.73" height="111.73" fill="#333"/><rect x="235.04" y="24.1" width="88.73" height="111.73" fill="#333"/><rect x="332.31" y="46.45" width="43.38" height="67.04" fill="#333"/><rect x="342.17" y="56.3" width="23.66" height="47.98" fill="#fff"/><rect x="384.89" y="24.1" width="88.73" height="111.73" fill="#333"/><path d="M472.61,25.1V134.83H385.89V25.1h86.73m1-1H384.89V135.83h88.73V24.1Z"/><rect x="395.3" y="35.27" width="67.79" height="86.75" fill="#fff"/><rect x="481.89" y="24.1" width="88.73" height="111.73" fill="#333"/><path d="M569.61,25.1V134.83H482.89V25.1h86.73m1-1H481.89V135.83h88.73V24.1Z"/><rect x="492.3" y="35.27" width="67.79" height="86.75" fill="#fff"/><rect x="578.89" y="24.1" width="88.73" height="111.73" fill="#333"/><path d="M666.61,25.1V134.83H579.89V25.1h86.73m1-1H578.89V135.83h88.73V24.1Z"/><rect x="589.3" y="35.27" width="67.79" height="86.75" fill="#fff"/><rect x="40.5" y="24.1" width="88.73" height="111.73" fill="#333"/><path d="M51.9,35.35H72.76V69.61h.35L97.7,35.35h22.84L94.32,70.08l31.11,52H102.59L82.2,86.51,72.76,99.33v22.72H51.9Z" fill="#fff"/><polygon points="148.94 35.27 217.29 35.27 217.29 56.3 170.96 55.98 170.96 103.3 195.28 103.3 195.28 82.92 216.97 82.92 216.97 122.36 149.27 122.36 148.94 35.27" fill="#fff"/><polygon points="400.66 42.28 457.84 42.28 457.84 59.87 419.08 59.6 419.08 99.18 439.42 99.18 439.42 82.14 457.56 82.14 457.56 115.13 400.93 115.13 400.66 42.28" fill="#333"/><rect x="675.89" y="24.1" width="88.73" height="111.73" fill="#333"/><path d="M763.61,25.1V134.83H676.89V25.1h86.73m1-1H675.89V135.83h88.73V24.1Z"/><rect x="686.3" y="35.27" width="67.79" height="86.75" fill="#fff"/><polygon points="691.66 42.28 748.84 42.28 748.84 59.87 710.08 59.6 710.08 99.18 730.42 99.18 730.42 82.14 748.56 82.14 748.56 115.13 691.93 115.13 691.66 42.28" fill="#333"/><polygon points="497.66 42.28 554.84 42.28 554.56 115.13 497.93 115.13 497.66 42.28" fill="#333"/><polygon points="513.5 56.5 539 56.5 538.87 101.5 513.62 101.5 513.5 56.5" fill="#fff"/><polygon points="245.88 35.27 268.88 35.27 268.88 103.76 291.89 103.76 291.89 35.27 314.89 35.27 314.89 122.03 245.88 122.03 245.88 35.27" fill="#fff"/><polygon points="595 42 594.5 115.5 613 115.5 613.5 79 636 115 651 115 651 41 633 41 634 77 614 42 595 42" fill="#333"/><rect width="814" height="157" fill="none"/></g></g></svg>