<svg xmlns="http://www.w3.org/2000/svg" viewBox="0 0 428 428"><title>meterialize资源 2</title><g id="图层_2" data-name="图层 2"><g id="图层_1-2" data-name="图层 1"><rect width="428" height="428" fill="none"/><g id="图层_2-2" data-name="图层 2"><g id="图层_1-2-2" data-name="图层 1-2"><path d="M312.31,104s11.79-5.88,32.19,114c13.92,81.78,24.36,97.44,32.19,97.44H314.92c-7.83,0-18.27-15.66-32.19-97.44-20.4-119.85-32.19-114-32.19-114Z" fill="#dfdfdf"/><path d="M181.81,104S193.6,98.15,214,218c13.92,81.78,24.36,97.44,32.19,97.44H184.42c-7.83,0-18.27-15.66-32.19-97.44C131.83,98.15,120,104,120,104Z" fill="#dfdfdf"/><path d="M114.39,315.44c-3.48,0-7.83-5.22-16.53-49.59s-29.58-48.72-29.58-48.72H4.77s20.88,4.35,29.58,48.72,13,49.59,16.53,49.59Z" fill="#dfdfdf"/><path d="M313.61,315.44c3.48,0,7.83-5.22,16.53-49.59s29.58-48.72,29.58-48.72h63.51s-20.88,4.35-29.58,48.72-13,49.59-16.53,49.59Z" fill="#7f7f7f"/><path d="M114.82,315.44s11.79,5.88,32.19-114C160.93,119.69,171.37,104,179.2,104H117.43c-7.83,0-18.27,15.66-32.19,97.44-20.4,119.85-32.19,114-32.19,114Z" fill="#7f7f7f"/><path d="M247.06,315.44s11.79,5.88,32.19-114C293.17,119.69,303.61,104,311.44,104H249.67c-7.83,0-18.27,15.66-32.19,97.44-20.4,119.85-32.19,114-32.19,114Z" fill="#7f7f7f"/></g></g></g></g></svg>