<svg xmlns="http://www.w3.org/2000/svg" viewBox="0 0 478.61 478.61"><title>资源 5</title><g id="图层_2" data-name="图层 2"><g id="图层_1-2" data-name="图层 1"><rect width="478.61" height="478.61" fill="none"/><rect x="46.62" y="46.62" width="385.37" height="385.37" fill="none"/><path d="M46.62,239.34q1.5-82,58-137T239.31,46.66q84.28,1.5,138.12,57.57T432,239.34q-1.5,81.27-58,136.61T239.31,432a184.84,184.84,0,0,1-54.18-8.29,210.64,210.64,0,0,0,10.52-18.81q6-12.78,15.07-48.17,2.25-9.77,6.78-26.36,5.26,9,18.07,16.57,33.87,15.78,71.49-3,39.13-22.6,54.18-70,13.53-49.65-3.39-92.18t-60.58-61.35q-54.92-15.78-106.86,3.39t-72.26,65.86a153.4,153.4,0,0,0-6.4,34.26,160.16,160.16,0,0,0,1.12,33.1,65.08,65.08,0,0,0,11.29,29,58,58,0,0,0,24.09,19.58q3.76,1.5,6,0,3-1.5,6-12c2-7,2.77-11.79,2.27-14.3-.5-1-1.5-2.77-3-5.28q-15.78-25.61-10.52-53.8t23.31-47.79a104.64,104.64,0,0,1,65.09-27.09q37.23-2.25,63.59,20.31,14.28,16.53,18.42,39.89a122.27,122.27,0,0,1,0,44.78,134.68,134.68,0,0,1-14.68,40.27q-18.84,29.37-44.39,30.1-15-.75-24.47-11.68t-5.63-25.2q1.5-8.27,9-32.37t8.29-36.11q-2.25-28.61-26.36-29.37c-12.56,1.5-21.81,7.17-27.86,16.92s-9.29,21-9.79,33.49q2.25,21.85,6.78,30.1-8.27,33.87-12.79,54.18-1.5,5.26-8.29,32.37t-7.51,41.39v21.08q-53.41-24.86-84.28-71.87T46.62,239.34Z" fill="#bfbfbf"/></g></g></svg>