<svg xmlns="http://www.w3.org/2000/svg" viewBox="0 0 478.61 478.61"><title>资源 7</title><g id="图层_2" data-name="图层 2"><g id="图层_1-2" data-name="图层 1"><rect width="478.61" height="478.61" fill="none"/><rect x="46.62" y="46.62" width="385.37" height="385.37" fill="none"/><path d="M303.18,100.33v-.07H321l6.51,1.3a69.6,69.6,0,0,1,11.81,3.32,84,84,0,0,1,10.27,4.79,97.7,97.7,0,0,1,9,5.58,55.43,55.43,0,0,1,7.19,6q3.15,3.18,9.83,1.64A131.46,131.46,0,0,0,390,118.58q7.71-2.74,15.24-6.16t9.18-4.35l1.71-1,.07-.1.34-.17.34-.17.34-.17.34-.17.07-.1.1-.07.1-.07.07-.1.34-.1.34-.07-.07.51-.1.51-.17.51-.17.51-.17.34-.17.34-.17.51a11.91,11.91,0,0,0-.34,1.37,57.45,57.45,0,0,1-3.25,6.85,85.66,85.66,0,0,1-7.71,12.16,59.78,59.78,0,0,1-8.29,9.32q-3.7,3.18-4.9,4.45a14.7,14.7,0,0,1-2.91,2.4l-1.71,1.13-.34.17-.34.17-.07.1-.1.07-.1.07-.07.1-.34.17-.34.17-.07.1-.1.07-.1.07-.07.1-.07.1-.1.07-.1.07-.07.1h1.71l9.59-2.05a171.6,171.6,0,0,0,18.32-5l9.25-3.08,1-.34.51-.17.34-.17.34-.17.34-.17.34-.17.68-.1.68-.07v.68l-.17.07-.17.1-.07.1-.1.07-.1.07-.07.1-.07.1-.1.07-.1.07-.07.1-.07.1-.1.07-.17.34-.17.34-.1.07-4.35,5.82q-4.28,5.75-4.62,5.82t-1,1a98.14,98.14,0,0,1-7.26,7.64,172.37,172.37,0,0,1-13.08,11.88q-6.44,5.24-6.51,12.88T390,201.63q-.68,9.59-2.57,20.72a247,247,0,0,1-5.82,25.17,228.85,228.85,0,0,1-9.59,27.4,213.45,213.45,0,0,1-11.81,24q-6.16,10.62-11.3,18t-10.45,13.87q-5.31,6.51-13.42,14.66t-8.9,8.9q-.79.75-6.71,5.62t-12.67,9.79a146.57,146.57,0,0,1-12.4,8.12q-5.65,3.25-13.63,7.43a162.16,162.16,0,0,1-17.19,7.81q-9.25,3.6-19.52,6.68a178.3,178.3,0,0,1-19.86,4.79q-9.59,1.71-21.75,2.91l-12.16,1.2v.17H158v-.17l-2.91-.17q-2.91-.17-4.79-.34t-14.21-1.88q-12.33-1.71-19.35-3.42t-20.89-6.51a203.26,203.26,0,0,1-23.73-9.69q-9.83-4.86-12.33-6.16t-5.55-3.15l-3.08-1.88-.07-.1-.1-.07-.1-.07-.07-.1-.34-.17-.34-.17-.07-.1-.1-.07-.1-.07-.07-.1-.07-.1-.1-.07h-.17v-.68l.34.07.34.1,1.54.17q1.54.17,8.39.51t14.55,0a153.13,153.13,0,0,0,15.75-1.54,177.48,177.48,0,0,0,19-4.11,140.43,140.43,0,0,0,20.14-6.92q9.14-4,13-6a126.71,126.71,0,0,0,11.71-7.26l7.88-5.31.07-.1.1-.07.1-.07.07-.1.07-.1.1-.07.1-.07.07-.1.34-.1.34-.07.07-.34.1-.34.1-.07.07-.1-2.74-.17-5.31-.34a51.48,51.48,0,0,1-8-1.54,77.24,77.24,0,0,1-11.81-4.11,91.09,91.09,0,0,1-12.33-6.51,60.67,60.67,0,0,1-8.66-6.27q-2.64-2.47-6.85-7a69.29,69.29,0,0,1-7.26-9.35,84,84,0,0,1-5.89-11.06L92,289l-.17-.51-.17-.51-.1-.34-.07-.34.51.07.51.1,3.77.51a83.71,83.71,0,0,0,11.81.34,91.48,91.48,0,0,0,11.13-.68q3.08-.51,3.77-.68l.68-.17.86-.17.86-.17.07-.1.1-.07.1-.07.07-.1-.68-.17-.68-.17-.68-.17-.68-.17-.68-.17q-.68-.17-2.4-.68t-9.25-3.77a70.71,70.71,0,0,1-12-6.34,82.77,82.77,0,0,1-8.49-6.75,96.92,96.92,0,0,1-8.8-9.52,68.5,68.5,0,0,1-8.56-13.53,82.27,82.27,0,0,1-5.65-14.73,79.5,79.5,0,0,1-2.47-14.21l-.62-7.19.34.07.34.1.34.17.34.17.34.17.34.17,5.31,2.4a67,67,0,0,0,13.18,4.11q7.88,1.71,9.42,1.88l1.54.17h3.08l-.07-.1-.1-.07-.1-.07-.07-.1-.07-.1-.1-.07-.1-.07-.07-.1L97.7,217l-.34-.17-.07-.1-.1-.07-.1-.07-.07-.1-.34-.17-.34-.17-.07-.1-2.95-2.19a44.91,44.91,0,0,1-5.89-5.58q-3.08-3.42-6.16-7.19a55.53,55.53,0,0,1-5.48-8,97.56,97.56,0,0,1-5.07-10.89,77.31,77.31,0,0,1-4-13.25,75.44,75.44,0,0,1-1.54-13.18,83,83,0,0,1,.34-11.13,72.74,72.74,0,0,1,2.05-10.45A81.39,81.39,0,0,1,72,121.83l2.91-6.51.17-.51.17-.51.1-.07.07-.1.07-.1.1-.07.1.07.07.1.07.1.1.07.1.07.07.1.07.1.1.07.17.34.17.34.1.07.07.1,4.62,5.14q4.62,5.14,11,11.47t7,6.58a5,5,0,0,1,1.71,1.58,69.91,69.91,0,0,0,6.85,6.06q5.82,4.79,15.24,11.13t20.89,12.5a203.83,203.83,0,0,0,24.66,11.13q13.19,5,18.49,6.51t18.15,3.94q12.84,2.4,19.35,3.08t8.9.79l2.4.07-.07-.51-.1-.51-.68-4.28a80.48,80.48,0,0,1-.68-12,78.59,78.59,0,0,1,1.2-14.21,84.19,84.19,0,0,1,3.6-13.18A70.43,70.43,0,0,1,244,140.05a105.44,105.44,0,0,1,6.1-9.14,73.84,73.84,0,0,1,9.76-10.62,72,72,0,0,1,13.7-9.76A89.05,89.05,0,0,1,287.76,104a66.22,66.22,0,0,1,11-2.91A38.09,38.09,0,0,0,303.18,100.33Z" fill="#bfbfbf"/></g></g></svg>