<?xml version="1.0" encoding="utf-8"?>
<!-- Generator: Adobe Illustrator 22.0.1, SVG Export Plug-In . SVG Version: 6.00 Build 0)  -->
<svg version="1.1" id="图层_1" xmlns="http://www.w3.org/2000/svg" xmlns:xlink="http://www.w3.org/1999/xlink" x="0px" y="0px"
	 viewBox="0 0 478.6 478.6" style="enable-background:new 0 0 478.6 478.6;" xml:space="preserve">
<style type="text/css">
	.st0{fill:none;}
	.st1{fill:#BFBFBF;}
</style>
<title>资源 3</title>
<g id="图层_2_1_">
	<g id="图层_1-2">
		<rect x="46.6" y="47.8" class="st0" width="385.4" height="385.4"/>
		<rect class="st0" width="478.6" height="478.6"/>
	</g>
</g>
<g>
	<path class="st1" d="M431.6,171.3c1.7,21.5-2,47.2-16.2,48.5c-23.1,2.1-11.1-23.4-10.8-38.8c0.8-44.5-37.1-75.4-74.3-75.4
		c-10.5,0-35,7.1-31.2-15.1c1.7-9.8,10-9.7,18.3-10.8C380,71.4,427.2,114.5,431.6,171.3L431.6,171.3z"/>
	<path class="st1" d="M329.3,223c26.9,14.7,59.2,22,53.8,65.7c-1.3,10.5-7.6,24.4-14,33.4c-45.5,63.6-182.6,90.4-268.2,42
		c-28.7-16.2-58.4-40-53.8-87.3c3.9-40.7,31.3-72.2,58.2-99.1c25.6-25.6,52.6-45.7,89.4-54.9c39.9-10,51.7,23.2,40.9,56
		c23.1-1.5,72.1-27.3,93.7-2.2C338.8,187.8,335.2,207.7,329.3,223L329.3,223z M300.2,326.4c8.6-9.8,17.3-24.7,17.2-42
		c-0.1-53.5-67.5-73.3-120.6-68.9c-29,2.4-48.6,8.5-68.9,20.5c-16.6,9.8-36.1,25.6-40.9,49.5c-10.9,53.7,47.6,79,90.5,81.9
		C227,370.7,276.6,353.2,300.2,326.4z"/>
	<path class="st1" d="M378.8,171.3c2.3,16.4-2.4,30.6-11.8,31.2c-15.7,1-9.8-10.7-10.8-24.8c-0.6-8.6-7.8-18.6-14-21.5
		c-12.3-5.7-31.2,4.2-31.2-12.9c0-12.7,11-11.4,17.2-11.9C355.5,129.4,375.6,148.2,378.8,171.3z"/>
	<path class="st1" d="M252.8,279c22.9,69.4-96.6,101.6-118.5,42c-14.6-39.9,20.5-71.6,57.1-75.4C222.7,242.4,245.9,258.3,252.8,279z
		 M197.9,290.9c4.9,8.4,16.1,2.4,15.1-4.3C211.8,278.8,197.8,280,197.9,290.9z M178.5,327.5c20.1-4.8,22.8-42.6-7.5-35.5
		C145.5,297.9,150.4,334.2,178.5,327.5z"/>
</g>
</svg>
