<svg xmlns="http://www.w3.org/2000/svg" version="1.1" viewBox="0 0 48 48">
    <path fill="#bfbfbf" d="M31.6,16.406l-1.2,9.852a16.668,16.668,0,0,0-.108,1.7c0,.645.284.958.851.958,1.016,0,2.023-.664,3.01-1.984a8.143,8.143,0,0,0,1.486-4.994,9.439,9.439,0,0,0-3.187-7.3,11.188,11.188,0,0,0-7.809-2.893,11.315,11.315,0,0,0-8.435,3.528,12.058,12.058,0,0,0-3.44,8.767,12.264,12.264,0,0,0,3.215,8.435q3.212,3.591,9.061,3.6a21.461,21.461,0,0,0,3.675-.362,21.938,21.938,0,0,0,5.659-2.17l1.437,3.6a23.038,23.038,0,0,1-10.771,2.727,17.906,17.906,0,0,1-8.533-1.955,14.868,14.868,0,0,1-5.893-5.7,15.75,15.75,0,0,1-2.229-8.2,15.071,15.071,0,0,1,4.731-11.318A15.926,15.926,0,0,1,24.586,8.137a15.069,15.069,0,0,1,10.732,4.027,12.764,12.764,0,0,1,4.291,9.666,11.578,11.578,0,0,1-2.629,7.634,7.875,7.875,0,0,1-6.246,3.156,4.191,4.191,0,0,1-3.724-1.9,5.089,5.089,0,0,1-4.036,1.984,5.7,5.7,0,0,1-4.5-2.248A8.916,8.916,0,0,1,16.6,24.547a8.92,8.92,0,0,1,2.1-6.128,6.527,6.527,0,0,1,5.072-2.375,5.238,5.238,0,0,1,3.441,1.29l.263-.938H31.6v.01Zm-8.327,12.1A3.237,3.237,0,0,0,25.789,27.1,5.729,5.729,0,0,0,26.922,23.4a3.231,3.231,0,0,0-.84-2.18,2.621,2.621,0,0,0-4.242.264,5.451,5.451,0,0,0-.87,3.225,5.353,5.353,0,0,0,.626,2.708A1.858,1.858,0,0,0,23.277,28.506Z"/>
</svg>
