<svg version="1.1" viewBox="0 0 48 48" xmlns="http://www.w3.org/2000/svg">
 <path d="M23.971,8.789a15.6,15.6,0,0,0-4.93,30.4c.777.146,1.068-.34,1.068-.753,0-.372-.016-1.6-.024-2.906-4.339.947-5.254-1.838-5.254-1.838A4.179,4.179,0,0,0,13.1,31.407c-1.417-.971.105-.947.105-.947a3.292,3.292,0,0,1,2.388,1.611,3.321,3.321,0,0,0,4.542,1.3,3.306,3.306,0,0,1,.987-2.088c-3.465-.4-7.108-1.733-7.108-7.707a6.047,6.047,0,0,1,1.6-4.185,5.6,5.6,0,0,1,.154-4.129s1.312-.421,4.291,1.6a14.875,14.875,0,0,1,7.812,0c2.979-2.016,4.282-1.6,4.282-1.6a5.6,5.6,0,0,1,.154,4.129,6.006,6.006,0,0,1,1.6,4.185c0,5.991-3.651,7.31-7.124,7.7a3.733,3.733,0,0,1,1.061,2.89c0,2.088-.017,3.764-.017,4.282,0,.413.284.9,1.069.745a15.6,15.6,0,0,0-4.93-30.4" fill="#bfbfbf"/>
 <path d="M14.245,31.011c-.032.081-.154.1-.267.048s-.178-.154-.138-.234a.191.191,0,0,1,.267-.049c.114.057.178.154.138.235m.769.68c-.073.073-.219.04-.316-.073s-.121-.251-.048-.324.218-.04.324.073.121.259.04.324m.526.882c-.1.065-.251,0-.348-.137s-.1-.308,0-.373.251-.008.348.13a.282.282,0,0,1,0,.38m.891,1.012c-.089.1-.267.073-.405-.057s-.17-.307-.089-.4.267-.065.4.056.178.3.089.4m1.149.34c-.04.122-.21.178-.388.122s-.292-.2-.259-.324.21-.178.388-.122.3.2.259.324m1.312.146c.008.129-.146.235-.332.235s-.34-.1-.34-.227.146-.235.332-.243.34.105.34.235m1.279-.049c.024.122-.105.251-.292.292s-.348-.041-.372-.17.1-.259.291-.292.349.041.373.17" fill="#bfbfbf"/>
</svg>
