<svg version="1.1" viewBox="0 0 48 48" xmlns="http://www.w3.org/2000/svg">
 <path d="M29.24,11.4h0l1.455-.008.532.106a6.585,6.585,0,0,1,.964.27,7.672,7.672,0,0,1,.842.392,8.537,8.537,0,0,1,.736.458,4.226,4.226,0,0,1,.589.491.807.807,0,0,0,.8.131,11.655,11.655,0,0,0,1.177-.352c.417-.147.834-.319,1.243-.507s.662-.3.752-.351l.139-.082.008-.008.025-.017.024-.016.025-.016.024-.017.008-.008.009-.008.008-.008.008-.008.024-.009.025-.008-.008.041-.008.041-.017.041-.016.041-.016.024-.017.025-.016.041a.467.467,0,0,0-.025.114,3.474,3.474,0,0,1-.269.556,7,7,0,0,1-.63,1,4.621,4.621,0,0,1-.678.761c-.2.171-.336.294-.4.359a1.409,1.409,0,0,1-.237.2l-.139.09-.025.016-.024.016-.008.008-.008.009-.009.008-.008.008-.024.016-.025.017-.008.008-.008.008-.008.008-.009.008-.008.009L36,15.3l-.008.008-.008.008h.139l.784-.172a13.566,13.566,0,0,0,1.5-.408l.76-.254.082-.024.04-.017.025-.016.024-.016.025-.017.025-.016.057-.008.057-.008v.057l-.016.008-.017.008-.008.008-.008.008-.008.009-.008.008-.009.008-.008.008-.008.008L39.4,14.5l-.008.008-.008.008-.017.024-.016.025-.008.008-.36.474a4.714,4.714,0,0,1-.376.474c-.016,0-.049.033-.082.082a7,7,0,0,1-.6.621c-.343.344-.7.663-1.071.973a1.318,1.318,0,0,0-.531,1.055c0,.417-.024.883-.057,1.406s-.106,1.087-.213,1.692a19.631,19.631,0,0,1-.474,2.06,17.961,17.961,0,0,1-.785,2.24,17.479,17.479,0,0,1-.964,1.962c-.336.581-.646,1.071-.924,1.472s-.564.777-.859,1.136-.654.752-1.095,1.2-.687.687-.728.728-.228.2-.547.457-.671.532-1.039.8c-.327.237-.662.457-1.013.662-.311.18-.679.376-1.112.6a14.573,14.573,0,0,1-1.406.637c-.507.2-1.038.376-1.594.548a13.76,13.76,0,0,1-1.627.392c-.523.09-1.112.172-1.782.238l-1,.1v.016H17.37V36.59l-.237-.017c-.155-.008-.286-.016-.392-.024s-.491-.057-1.161-.156-1.2-.188-1.578-.277-.948-.27-1.709-.532a16.537,16.537,0,0,1-1.937-.793c-.54-.261-.875-.433-1.006-.507s-.286-.155-.449-.253l-.254-.155-.008-.009-.008-.008-.008-.008-.009-.008-.024-.017-.025-.016L8.557,33.8l-.008-.008-.008-.008-.008-.009-.008-.008-.009-.008H8.5V33.7l.025.008.024.008.123.017c.081.008.31.024.686.04s.769.017,1.194,0,.858-.065,1.292-.122A14.667,14.667,0,0,0,13.4,33.32a11.661,11.661,0,0,0,1.643-.564c.5-.221.85-.385,1.063-.491a9.68,9.68,0,0,0,.956-.6l.646-.433.008-.008.009-.008.008-.009.008-.008.008-.008.008-.008.008-.008.009-.008.024-.009.025-.008.008-.024.008-.025.008-.008.008-.008-.22-.017-.434-.024a4.383,4.383,0,0,1-.654-.123,5.762,5.762,0,0,1-.964-.335,7.354,7.354,0,0,1-1.006-.531,4.406,4.406,0,0,1-.711-.515c-.147-.131-.327-.327-.556-.573a5.493,5.493,0,0,1-.6-.768,6.875,6.875,0,0,1-.482-.907l-.245-.515-.017-.041L11.95,26.7l-.008-.025-.008-.024.04.008.041.008.311.041a6.223,6.223,0,0,0,.965.024,6.736,6.736,0,0,0,.907-.057c.172-.024.27-.049.311-.057l.057-.016.074-.017.073-.016.008-.008.008-.008.009-.009.008-.008-.057-.016-.058-.016-.057-.017-.057-.016-.057-.016a1.473,1.473,0,0,1-.2-.058c-.089-.032-.343-.131-.76-.31a5.663,5.663,0,0,1-.981-.515,6.612,6.612,0,0,1-.7-.556,9.4,9.4,0,0,1-.719-.777,5.965,5.965,0,0,1-.7-1.1,7.137,7.137,0,0,1-.466-1.2,6.351,6.351,0,0,1-.205-1.161l-.049-.589.025.008.024.009.025.016.024.016.025.017.025.016.433.2a5.464,5.464,0,0,0,1.079.335c.433.09.687.147.768.156l.123.016h.253l-.008-.008-.008-.008-.008-.008-.008-.009-.008-.008-.009-.008-.008-.008-.008-.008-.024-.025-.025-.016-.008-.008-.008-.009-.009-.008-.008-.008-.024-.016-.025-.017-.008-.008-.237-.18a3.646,3.646,0,0,1-.482-.457c-.172-.189-.336-.385-.507-.589a4.39,4.39,0,0,1-.45-.654,9.026,9.026,0,0,1-.417-.891,6.223,6.223,0,0,1-.327-1.087,5.944,5.944,0,0,1-.122-1.08,8.324,8.324,0,0,1,.024-.907,5.062,5.062,0,0,1,.172-.85,6.407,6.407,0,0,1,.36-1.014l.237-.531.016-.041.016-.041.008-.008.009-.008.008-.009.008-.008.008.008.008.009.009.008.008.008.008.008.008.008.008.008.008.009.017.024.016.025.008.008.008.008.377.417c.253.278.547.6.9.94s.539.523.572.54a.355.355,0,0,1,.139.13,5.378,5.378,0,0,0,.556.5c.319.262.736.564,1.243.908a18.848,18.848,0,0,0,1.708,1.021,15.4,15.4,0,0,0,2.019.908c.72.27,1.227.45,1.513.531s.785.188,1.479.319,1.227.213,1.586.254.6.057.728.065l.2.008.017.041-.009-.041-.057-.351a6.589,6.589,0,0,1-.057-.981,6.918,6.918,0,0,1,.1-1.161,6.218,6.218,0,0,1,.294-1.079,5.557,5.557,0,0,1,.385-.875,7.71,7.71,0,0,1,.5-.744,5.781,5.781,0,0,1,.8-.867,6.041,6.041,0,0,1,1.12-.8,6.832,6.832,0,0,1,1.161-.531,5.062,5.062,0,0,1,.9-.237C29,11.451,29.118,11.435,29.24,11.4Z" fill="#bfbfbf"/>
</svg>
