<svg xmlns="http://www.w3.org/2000/svg" version="1.1" viewBox="0 0 48 48">
    <path fill="#bfbfbf" d="M36.591,16.9H28.763V14.953h7.828V16.9Zm-13.03,7.974a5.173,5.173,0,0,1,.753,2.844,5.649,5.649,0,0,1-.867,3.1,5.351,5.351,0,0,1-3.574,2.5,13.3,13.3,0,0,1-2.747.259H8.374V14.151h9.384c2.367.04,4.044.721,5.033,2.066a4.968,4.968,0,0,1,.891,2.966,4.324,4.324,0,0,1-.9,2.861,4.542,4.542,0,0,1-1.483,1.1A4.342,4.342,0,0,1,23.561,24.872ZM12.872,21.809H16.98a3.921,3.921,0,0,0,2.051-.478,1.842,1.842,0,0,0,.786-1.71,1.73,1.73,0,0,0-1.046-1.791,7.244,7.244,0,0,0-2.293-.308H12.864l.008,4.287Zm7.35,5.632a2.079,2.079,0,0,0-1.24-2.083,4.908,4.908,0,0,0-1.945-.332H12.864V30.2h4.108a4.624,4.624,0,0,0,1.97-.34A2.429,2.429,0,0,0,20.222,27.441ZM39.5,24.28a18.063,18.063,0,0,1,.121,2.764H29.484a3.3,3.3,0,0,0,1.459,2.933,3.687,3.687,0,0,0,2.01.519,3.062,3.062,0,0,0,2.018-.64,2.953,2.953,0,0,0,.745-.956h3.712a4.516,4.516,0,0,1-1.345,2.512,6.767,6.767,0,0,1-5.235,2.034,7.625,7.625,0,0,1-4.9-1.71c-1.41-1.143-2.123-3-2.123-5.576a7.571,7.571,0,0,1,1.912-5.551,6.712,6.712,0,0,1,4.976-1.928,8.042,8.042,0,0,1,3.274.648,5.591,5.591,0,0,1,2.4,2.058A7.043,7.043,0,0,1,39.5,24.28Zm-3.663.365a3,3,0,0,0-.973-2.2A3.164,3.164,0,0,0,32.71,21.7a2.869,2.869,0,0,0-2.172.8,3.772,3.772,0,0,0-.972,2.155l6.272-.008Z"/>
</svg>
