<svg version="1.1" viewBox="0 0 48 48" xmlns="http://www.w3.org/2000/svg">
 <path d="M8.4,24A15.349,15.349,0,0,1,13.13,12.838,15.41,15.41,0,0,1,24.105,8.3a15.306,15.306,0,0,1,11.251,4.693A15.546,15.546,0,0,1,39.805,24a15.371,15.371,0,0,1-4.726,11.129,15.327,15.327,0,0,1-10.974,4.563,15.041,15.041,0,0,1-4.416-.676c.31-.5.595-1.011.855-1.532a26.242,26.242,0,0,0,1.231-3.927c.122-.53.309-1.247.554-2.151A4.007,4.007,0,0,0,23.8,32.758a6.423,6.423,0,0,0,5.826-.244,9.7,9.7,0,0,0,4.416-5.7,11.607,11.607,0,0,0-.277-7.512,8.828,8.828,0,0,0-4.938-4.994,13.655,13.655,0,0,0-8.709.277,9.763,9.763,0,0,0-5.891,5.369,12.427,12.427,0,0,0-.521,2.794,13.02,13.02,0,0,0,.089,2.7,5.308,5.308,0,0,0,.921,2.363,4.69,4.69,0,0,0,1.964,1.6.514.514,0,0,0,.488,0q.245-.123.489-.978a3.092,3.092,0,0,0,.188-1.165c-.041-.082-.123-.228-.245-.432a6.017,6.017,0,0,1-.855-4.383,7.726,7.726,0,0,1,1.9-3.895,8.5,8.5,0,0,1,5.3-2.208A7.032,7.032,0,0,1,29.132,18a6.6,6.6,0,0,1,1.5,3.251,9.824,9.824,0,0,1,0,3.65,11.032,11.032,0,0,1-1.2,3.284,4.516,4.516,0,0,1-3.617,2.452,2.71,2.71,0,0,1-2-.953,2.115,2.115,0,0,1-.457-2.053q.123-.674.734-2.64a14.118,14.118,0,0,0,.676-2.941q-.183-2.336-2.151-2.4a2.942,2.942,0,0,0-2.273,1.377,5.467,5.467,0,0,0-.8,2.73,7.222,7.222,0,0,0,.554,2.452c-.448,1.841-.8,3.308-1.042,4.416-.082.285-.31,1.165-.677,2.64a19.586,19.586,0,0,0-.611,3.373v1.719a16.235,16.235,0,0,1-6.86-5.858A15.151,15.151,0,0,1,8.4,24Z" fill="#bfbfbf"/>
</svg>
