<svg version="1.1" viewBox="0 0 48 48" xmlns="http://www.w3.org/2000/svg">
 <path d="M39.495,18.964c.137,1.732-.161,3.8-1.306,3.908-1.861.169-.894-1.886-.87-3.127a6.037,6.037,0,0,0-5.987-6.075c-.846,0-2.82.572-2.514-1.217.137-.79.806-.782,1.475-.87a7.917,7.917,0,0,1,9.2,7.381Z" fill="#bfbfbf"/>
 <path d="M31.252,23.129c2.167,1.185,4.77,1.773,4.335,5.294a6.756,6.756,0,0,1-1.128,2.692C30.792,36.239,19.745,38.4,12.848,34.5c-2.313-1.3-4.706-3.223-4.335-7.034.314-3.28,2.522-5.818,4.689-7.986a15.208,15.208,0,0,1,7.2-4.423c3.215-.806,4.166,1.869,3.3,4.512,1.862-.121,5.81-2.2,7.551-.177.765.9.475,2.506,0,3.738Zm-2.345,8.332a5.224,5.224,0,0,0,1.386-3.384c-.008-4.311-5.439-5.906-9.718-5.552a12.025,12.025,0,0,0-5.552,1.652,6.39,6.39,0,0,0-3.295,3.989c-.879,4.327,3.835,6.365,7.292,6.6C23.009,35.031,27.005,33.621,28.907,31.461Z" fill="#bfbfbf"/>
 <path d="M35.24,18.964c.186,1.321-.193,2.465-.951,2.514-1.265.08-.789-.863-.87-2a2.376,2.376,0,0,0-1.128-1.732c-.991-.459-2.514.338-2.514-1.04,0-1.023.886-.918,1.386-.958A3.739,3.739,0,0,1,35.24,18.964Z" fill="#bfbfbf"/>
 <path d="m25.087 27.642c1.846 5.592-7.783 8.187-9.548 3.384-1.176-3.215 1.652-5.769 4.6-6.075 2.523-0.258 4.392 1.023 4.948 2.691zm-4.423 0.959a0.653 0.653 0 0 0 1.216-0.347c-0.096-0.628-1.224-0.532-1.216 0.346zm-1.564 2.949c1.62-0.387 1.838-3.433-0.6-2.861-2.059 0.476-1.664 3.401 0.6 2.861z" fill="#bfbfbf"/>
</svg>
