<svg version="1.1" viewBox="0 0 48 48" xmlns="http://www.w3.org/2000/svg">
 <path d="M23.97,8.252A15.663,15.663,0,0,0,8.417,22.738l8.362,3.487a4.376,4.376,0,0,1,2.489-.772,2.113,2.113,0,0,1,.243.009l3.721-5.439v-.078a5.89,5.89,0,1,1,5.89,5.942h-.13L23.683,29.7c0,.07.009.139.009.209a4.411,4.411,0,0,1-8.744.876l-5.985-2.5A15.628,15.628,0,1,0,23.97,8.252ZM18.193,32.158l-1.918-.8a3.3,3.3,0,0,0,6.047-.165,3.393,3.393,0,0,0,.008-2.559A3.288,3.288,0,0,0,18.1,26.789l1.978.824a2.469,2.469,0,0,1,1.31,3.218,2.437,2.437,0,0,1-3.192,1.327Zm14.85-12.213A3.921,3.921,0,1,0,29.122,23.9,3.941,3.941,0,0,0,33.043,19.945Zm-6.861-.009a2.949,2.949,0,1,1,2.949,2.975,2.963,2.963,0,0,1-2.949-2.975Z" fill="#bfbfbf"/>
</svg>
