<svg version="1.1" viewBox="0 0 77.652 48.1" xmlns="http://www.w3.org/2000/svg">
 <path d="M53.407,8.851s1.716-.858,4.705,16.637c2.041,11.945,3.562,14.233,4.7,14.233H53.8c-1.144,0-2.665-2.288-4.7-14.233-2.99-17.495-4.7-16.637-4.7-16.637Z" fill="#dfdfdf"/>
 <path d="M34.352,8.851s1.716-.858,4.706,16.637c2.04,11.945,3.561,14.233,4.7,14.233H34.742c-1.143,0-2.664-2.288-4.7-14.233-2.976-17.495-4.7-16.637-4.7-16.637Z" fill="#dfdfdf"/>
 <path d="M24.5,39.721c-.507,0-1.144-.754-2.417-7.24s-4.329-7.11-4.329-7.11H8.5s3.041.637,4.315,7.11,1.9,7.24,2.418,7.24Z" fill="#dfdfdf"/>
 <path d="M53.589,39.721c.52,0,1.144-.754,2.431-7.24s4.315-7.11,4.315-7.11H69.6s-3.054.637-4.328,7.11-1.9,7.24-2.418,7.24Z" fill="#7f7f7f"/>
 <path d="M24.565,39.721s1.716.857,4.7-16.637C31.3,11.139,32.832,8.851,33.975,8.851h-9.02c-1.144,0-2.664,2.288-4.7,14.233-2.977,17.494-4.7,16.637-4.7,16.637Z" fill="#7f7f7f"/>
 <path d="M43.88,39.721s1.715.857,4.7-16.637c2.041-11.945,3.561-14.233,4.7-14.233H44.257c-1.144,0-2.665,2.288-4.7,14.233-2.977,17.494-4.706,16.637-4.706,16.637Z" fill="#7f7f7f"/>
</svg>
